Patient4_TMGait_0pt2_01_right_22_EMG.mot
version=1
nRows=20
nColumns=33
inDegrees=no
endheader
time	1LAddLong	2LGlutMax	3LGlutMed	4LIliopsoas	5LSemiMemb	6LBicFemLong	7LRecFem	8LVastMed	9LVastLat	10LGasMed	11LTibAnt	12lTibPost	13LPeroneusLong	14LSol	15LExtDigLong	16LFlexDigLong	17RAddLong	18RGlutMax	19RGlutMed	20RIliopsoas	21RSemiMemb	22RBicFemLong	23RRecFem	24RVastMed	25RVastLat	26RGasMed	27RTibAnt	28RTibPost	29RPeroneusLong	30RSol	31RExtDigLong	32RFlexDigLong
50.21	0.006866	-0.022888	0.006866	0.006866	0.044861	-0.026245	0.002594	-0.003815	-0.015717	0.039368	0.000305	-0.00412	-0.005341	-0.058746	0.001068	0.31891	0.005646	-0.53253	0.22873	-0.13473	-0.014648	-0.34424	0.30624	-0.12085	0.17456	-0.003204	-0.038757	0.00824	0.066681	-0.068359	0	-0.00885
50.211	0.000458	-0.038757	-0.019836	0.00061	0.040131	-0.009003	0.007782	-0.000305	-0.0177	0.022888	-0.001984	-0.00412	-0.005341	0.01236	0.013885	0.038452	0.009613	-0.49484	-0.019836	-0.1564	-0.042114	-0.095062	0.1416	-0.14267	0.092926	0.003967	-0.088043	-0.00351	0.020752	-0.028076	-0.001068	-0.00885
50.212	-0.000305	-0.006866	-0.020294	0.009155	0.014801	0.01236	0.041656	0.003967	-0.009766	0.022125	0.000305	0.000916	-0.012207	-0.094299	0.01709	-0.008698	0.021057	-0.5072	-0.11261	-0.11734	-0.12131	0.038452	0.075531	-0.06546	-0.1561	-0.00351	0.042725	-0.006104	-0.013885	0.059357	-0.001373	-0.018463
50.213	0.001831	0.017242	-0.005341	-0.003967	0.007782	-0.002594	0.016632	0.00946	-0.018768	0.00061	-0.001984	-0.002441	-0.019836	-0.17242	0.012512	-0.030212	0.031738	-0.54947	-0.1886	0.025787	-0.45105	0.094299	0.046692	-0.067596	-0.53665	-0.014038	0.35324	-0.005035	-0.035248	0.014038	-0.002899	-0.012512
50.214	-0.005798	0.024719	-0.005493	-0.010986	-0.001068	-0.00412	0.018005	0.002747	-0.012817	-0.014801	-0.013733	0.008698	-0.030823	-0.098114	0.006104	-0.052948	0.018311	-0.55283	0.3183	0.070038	-0.21255	-0.066986	-0.10651	-0.15442	-0.51956	0.003357	0.4776	-0.002747	0.024109	-0.030518	-0.006256	-0.008698
50.215	0.002899	0.024872	0.005798	0.002747	0.008698	-0.012512	0.032959	0.005188	-0.011902	0.027161	0.005493	0.007324	-0.016479	0.089722	0.012512	-0.057373	-0.06897	-0.6398	-0.15945	0.10757	0.22598	-0.13519	-0.088501	-0.33737	-0.20889	0.001831	0.56778	-0.000153	-0.077362	-0.089111	0.000153	-0.003357
50.216	-0.000458	0.042267	0.006409	-0.00061	-0.005493	0.009155	0.02121	0.002289	-0.009155	0.037537	0.003815	0.014496	-0.004425	0.16068	0.014343	-0.039825	0.006866	-0.63309	-0.14526	0.05661	0.067444	-0.19226	0.10544	-0.22308	-0.13107	-0.000153	0.34836	0.001678	-0.019379	-0.074921	-0.002899	-0.003204
50.217	0.00061	0.031281	-0.011292	-0.003357	-0.008545	0.018463	0.011292	0.009308	-0.016327	0.039063	0.004272	0.006409	-0.012207	0.077667	0.006866	-0.036163	0.046387	-0.63812	-0.09552	-0.087891	0.066681	-0.32806	0.045471	-0.080566	-0.10101	0.005188	-0.95993	-0.000458	0.10346	-0.093842	-0.004883	-0.004272
50.218	-0.006409	0.063782	-0.010529	0.003967	-0.005646	0.02243	0.028992	0.007935	-0.00946	0.024261	-0.007019	0.009918	0.030518	-0.009155	0.006256	-0.034943	0.033417	-0.60226	-0.27237	-0.062714	-0.22705	-0.27329	-0.13077	0.049591	-0.042419	0.001984	-1.1978	-0.001984	0.088806	-0.074463	-0.003662	-0.007019
50.219	-0.001984	0.099792	-0.009918	0.018005	0.012817	0.001221	0.017548	0.006256	-0.011292	0.020294	0.001831	0.002289	0.028687	-0.026703	0.006256	-0.059357	-0.006561	-0.59677	-0.18143	-0.05249	-0.37949	-0.090485	-0.13534	0.088654	0.13916	-0.009003	-0.74066	-0.005035	0.054626	0.02182	-0.003052	-0.002136
50.22	-0.001678	0.0737	-0.023651	0.021667	0.015106	-0.027771	0.001678	0	-0.014038	0.024109	-0.000763	-0.008087	0.028687	0.031738	-0.003662	-0.11536	-0.007477	-0.58533	-0.3421	-0.018921	-0.74387	0.10986	0.031433	0.044403	0.072021	-0.001984	-0.32379	-0.003357	0.084381	0.041962	-0.003815	0.001831
50.221	0.001068	0.11185	-0.009003	0.017548	0.014496	-0.021973	0.0177	-0.002289	-0.008698	0.014496	0.001831	0.006866	0.07431	0.10742	-0.00824	0.10925	0.020599	-0.60684	-0.63828	0.12711	-0.51773	0.20294	0.11444	-0.062714	-0.020599	0.007782	-0.07309	-0.000763	0.14053	-0.027618	-0.003662	0.006409
50.222	-0.002289	0.10513	-0.015411	0.008545	0.013885	-0.004883	-0.006561	0.00473	-0.012817	0.005798	0.018005	0.00473	0.11139	0.1445	-0.001984	0.000458	0.01297	-0.55252	-0.41504	0.19028	0.094299	0.20508	0.063782	-0.25467	-0.09903	0.001678	0.11063	-0.000458	0.070038	-0.013123	-0.00351	-0.005035
50.223	-0.005646	0.11978	0.007629	0.001373	-0.003052	0.010834	0.00351	0.005493	-0.007935	0.017242	-0.031586	0.005798	0.074005	0.097351	-0.001526	-0.063934	-0.002747	-0.49118	0.28244	0.12009	0.49072	0.0914	0.12558	-0.23544	-0.055542	0.009003	0.2478	-0.003662	0.026855	-0.014038	0.000763	-0.011597
50.224	-0.002899	0.10941	0.010986	0.006866	-0.00946	0.001984	-0.013275	0.007324	-0.009613	0.039368	0.018311	-0.005035	-0.064545	0.019684	-0.015564	-0.022278	0.021362	-0.5246	0.70908	0.062408	0.48401	0.062256	0.17105	-0.32105	-0.007172	0.005798	0.49439	0.000916	0.007782	0.044708	-0.00351	-0.011292
50.225	0.001831	0.11597	0.00412	0.010071	0.002441	-0.019684	-0.001678	0.010986	0.003357	0.049591	0.014648	0.005341	-0.046082	0.14816	0.001068	0.094299	0.010681	-0.55512	0.29526	0.07309	0.13412	0.11185	0.11063	-0.27496	0.099945	0.003662	0.40314	-0.000916	-0.035858	0.062408	-0.003815	-0.0177
50.226	0.003662	0.14206	0.003967	-0.006409	0.015869	-0.024261	-0.004425	0.00824	0.007935	0.024414	-0.035553	0.000763	-0.033264	0.23254	0.020294	-0.003357	0.003204	-0.5339	-0.085907	0.074921	0.002289	0.076141	-0.00946	-0.18417	0.14221	-0.011444	0.04776	-0.000458	0.04837	0.14603	-0.005188	-0.005951
50.227	-0.00412	0.15823	0.01297	-0.006561	0.010223	-0.00061	-0.021973	0.001831	0.005798	0.056915	-0.003967	0.000916	-0.045929	0.23025	0.015869	-0.073242	0.064697	-0.54092	-0.17624	0.052032	-0.14603	0.054169	0.001984	-0.27084	0.080109	0.013428	-0.15121	-0.000916	0.12512	0.10834	-0.007782	-0.002289
50.228	0.089417	0.17334	0.031281	0.001068	0.007629	0.015717	-0.018463	0.001831	0.009613	0.093536	-0.000153	0.002747	-0.084534	0.13382	-0.022278	0.098267	0.066833	-0.46204	-0.019379	-0.006714	-0.12833	0.10361	0.057678	-0.22446	0.16739	-0.003357	-0.21469	-0.000458	0.18341	-0.033722	-0.001678	-0.014343
50.229	-0.069733	0.13367	0.02594	0.012207	0.011749	0.002899	-0.011139	0.005493	0.005341	0.033264	0.000458	0.006409	-0.057068	-0.20493	-0.011444	0.016785	0.012207	-0.42419	0.028687	-0.014648	-0.16052	0.18936	-0.037384	-0.14526	0.26977	-0.012665	-0.021057	0	0.11459	-0.07782	-0.001678	-0.008698
